<svg width="22" height="18" viewBox="0 0 22 18" fill="none" xmlns="http://www.w3.org/2000/svg">
<path fill-rule="evenodd" clip-rule="evenodd" d="M20 2C21.1046 2 22 2.89543 22 4V16C22 17.1046 21.1046 18 20 18H2C0.89543 18 0 17.1046 0 16V2C0 0.89543 0.89543 0 2 0H8C9.12 0 9.83294 0.475451 10.549 1.37885C10.5688 1.40385 10.6171 1.46608 10.6706 1.535L10.6707 1.53515C10.7461 1.63236 10.8318 1.74283 10.8625 1.78082C10.8935 1.81925 10.9196 1.85103 10.9412 1.8773L10.9412 1.87732C11.0292 1.98428 11.0419 1.99978 11.0018 2H20ZM20 6V4L10.9946 3.99999C10.2765 3.99614 9.80869 3.65991 9.30583 3.03654C9.26027 2.98006 9.14958 2.83737 9.0692 2.73376L9.06919 2.73375L9.06905 2.73357C9.02706 2.67944 8.99336 2.636 8.9816 2.62116C8.60702 2.14857 8.38424 2 8 2H2V6H20ZM20 8H2V16H20V8Z" fill="white"/>
</svg>
